<?xml version="1.0" encoding="UTF-8"?><svg id="a" xmlns="http://www.w3.org/2000/svg" viewBox="0 0 1489 401"><defs><style>.b,.c{fill:#fff;}.c{stroke:#fff;stroke-miterlimit:10;stroke-width:2.83px;}</style></defs><g><path class="b" d="M350.84,.72H49.16C22.01,.72,0,22.73,0,49.88V351.56c0,27.15,22.01,49.16,49.16,49.16H350.84c27.15,0,49.16-22.01,49.16-49.16V49.88c0-27.15-22.01-49.16-49.16-49.16Z"/><path d="M333.34,280.72c0,3.48-1.36,6.82-3.78,9.31-2.43,2.49-5.74,3.93-9.22,4.02H0v-26.66H120c.12,0,.23,0,.35,0,3.47-.1,6.77-1.54,9.19-4.03,2.42-2.49,3.78-5.82,3.78-9.29s-1.35-6.81-3.78-9.3c-2.42-2.49-5.72-3.93-9.19-4.03H46.35c-3.47-.1-6.77-1.54-9.19-4.03-2.42-2.49-3.78-5.82-3.78-9.3s1.35-6.81,3.78-9.3c2.42-2.49,5.72-3.93,9.19-4.03H118.57c.37,.05,.74,.08,1.11,.09h.69c.39,0,.77,0,1.15-.09,3.26-.37,6.26-1.92,8.45-4.36,2.18-2.44,3.39-5.6,3.39-8.88v-.67c-.14-3.38-1.56-6.58-3.98-8.95-2.41-2.37-5.64-3.73-9.02-3.8h-40.36c-.11,.01-.23,.01-.34,0-3.01-.07-5.9-1.16-8.21-3.09s-3.9-4.57-4.51-7.52c-.61-2.94-.21-6.01,1.13-8.69,1.35-2.69,3.56-4.84,6.29-6.11,1.66-.78,3.47-1.2,5.3-1.24h40.69c3.47-.1,6.77-1.54,9.19-4.03,2.42-2.49,3.78-5.82,3.78-9.29s-1.35-6.81-3.78-9.3c-2.42-2.49-5.72-3.93-9.19-4.03H0v-26.74H134.21c8.69,.22,16.95,3.83,23.02,10.06,6.07,6.23,9.46,14.58,9.44,23.27v126.7h53.33c.12,0,.23,0,.35,0,3.48-.09,6.78-1.53,9.21-4.02,2.43-2.49,3.79-5.83,3.79-9.31v-106.7c0-3.48-1.36-6.82-3.79-9.32-2.43-2.49-5.74-3.94-9.21-4.02h-7.35c-3.47-.1-6.77-1.54-9.19-4.03-2.42-2.49-3.78-5.82-3.78-9.3s1.35-6.81,3.78-9.3c2.42-2.49,5.72-3.93,9.19-4.03h21.22c8.69,.22,16.94,3.83,23.01,10.06,6.06,6.22,9.45,14.57,9.44,23.26v126.7h53.68c3.47,.09,6.77,1.53,9.2,4.01,2.43,2.48,3.79,5.82,3.79,9.29Z"/></g><polygon class="b" points="692.07 53.61 692.07 88.74 616.75 88.74 616.75 236.02 575.57 236.02 575.57 88.74 500 88.74 500 53.61 692.07 53.61"/><path class="b" d="M877.14,156.3c-1.23-.3-2.5-.56-3.84-.81,5.91-1.85,11.51-4.57,16.61-8.09,5.53-3.88,9.99-9.09,12.98-15.15,3.27-7.03,4.85-14.72,4.64-22.47,0-12.89-3.02-23.64-8.95-31.98-6.22-8.52-14.9-14.95-24.87-18.42-11.79-4.05-24.19-6-36.66-5.76h-122.96V236.02h41.18v-65.68h66.67c8.71-.24,17.43,.48,25.98,2.15,5.49,1.3,9.27,3.6,11.36,6.82,2.39,4.46,3.51,9.49,3.22,14.55v42.16h41.18v-44.64c0-10.38-2.32-18.4-6.7-23.84-5.18-5.85-12.16-9.81-19.84-11.24Zm-12.44-34.33c-1.28,3.17-3.23,6.02-5.73,8.36-4.93,4.63-12.3,6.81-21.92,6.81h-81.78v-47.57h81.78c9.69,0,17.1,1.97,22.06,5.84,4.96,3.87,7.23,9.27,7.23,16.57,.19,3.41-.37,6.82-1.64,9.99Z"/><polygon class="b" points="1300.24 200.88 1300.24 236.02 1140.89 236.02 1140.89 53.61 1182.05 53.61 1182.05 200.88 1300.24 200.88"/><polygon class="b" points="1489 200.88 1489 236.02 1329.65 236.02 1329.65 53.61 1370.81 53.61 1370.81 200.88 1489 200.88"/><path class="b" d="M1121.08,53.61l-2.32,3.57-77.75,120.94v57.93h-41.25v-57.93l-77.61-120.94-2.32-3.57h47.65l.65,1.05,41.39,63.2c3.38,4.92,6.23,10.18,8.53,15.69,1.07,2.72,1.85,5.54,2.31,8.43,.47-2.89,1.25-5.71,2.32-8.43,2.29-5.51,5.15-10.77,8.53-15.69l41.53-63.2,.69-1.05h47.65Z"/><path class="c" d="M575.52,346.42v-64.19h55.04v6.89h-43.99v21.69h41.14v6.89h-41.14v21.81h44.71v6.9h-55.75Z"/><path class="c" d="M796.47,282.42v64.18h-10.71l-49.8-50.4h-.89v50.4h-11.07v-64.18h10.71l49.98,50.52h.89v-50.52h10.89Z"/><path class="c" d="M955.08,302.63c-.98-2.12-2.28-4.02-3.88-5.7-1.58-1.7-3.47-3.15-5.67-4.35-2.17-1.2-4.64-2.11-7.41-2.74-2.77-.63-5.8-.94-9.11-.94-5.42,0-10.34,.99-14.78,2.96-4.43,1.97-7.96,4.88-10.58,8.72-2.62,3.84-3.93,8.55-3.93,14.14s1.33,10.3,3.97,14.14c2.65,3.84,6.24,6.75,10.76,8.72,4.52,1.97,9.61,2.96,15.27,2.96,5.24,0,9.85-.79,13.84-2.36,4.02-1.6,7.14-3.84,9.38-6.74,2.26-2.92,3.39-6.35,3.39-10.3l3.39,.5h-27.5v-6.93h34.83v6.93c0,5.31-1.61,9.93-4.82,13.86-3.18,3.92-7.59,6.97-13.22,9.13-5.6,2.14-12.02,3.21-19.29,3.21-8.1,0-15.21-1.34-21.34-4.03-6.1-2.69-10.86-6.51-14.29-11.46-3.39-4.96-5.09-10.83-5.09-17.64,0-5.1,.97-9.69,2.9-13.76,1.97-4.09,4.73-7.58,8.3-10.45,3.57-2.88,7.8-5.08,12.68-6.61,4.88-1.53,10.25-2.3,16.12-2.3,4.82,0,9.32,.51,13.48,1.54,4.2,1.01,7.93,2.45,11.21,4.31,3.3,1.85,6.06,4.06,8.26,6.64,2.2,2.56,3.72,5.4,4.55,8.53h-11.43Z"/><path class="c" d="M1071.15,282.42v64.18h-11.15v-64.18h11.15Z"/><path class="c" d="M1237.5,282.42v64.18h-10.86l-50.51-50.4h-.91v50.4h-11.22v-64.18h10.86l50.69,50.52h.91v-50.52h11.04Z"/><path class="c" d="M1330,346.42v-64.19h55.04v6.89h-44v21.69h41.15v6.89h-41.15v21.81h44.71v6.9h-55.75Z"/></svg>