<?xml version="1.0" encoding="UTF-8"?><svg id="a" xmlns="http://www.w3.org/2000/svg" viewBox="0 0 400 401"><defs><style>.b{fill:#f6f0eb;}.c{fill:#232e41;}</style></defs><path class="b" d="M350.84,.72H49.16C22.01,.72,0,22.73,0,49.88V351.56c0,27.15,22.01,49.16,49.16,49.16H350.84c27.15,0,49.16-22.01,49.16-49.16V49.88c0-27.15-22.01-49.16-49.16-49.16Z"/><path class="c" d="M333.34,280.72c0,3.48-1.36,6.82-3.78,9.31-2.43,2.49-5.74,3.93-9.22,4.02H0v-26.66H120c.12,0,.23,0,.35,0,3.47-.1,6.77-1.54,9.19-4.03,2.42-2.49,3.78-5.82,3.78-9.29s-1.35-6.81-3.78-9.3c-2.42-2.49-5.72-3.93-9.19-4.03H46.35c-3.47-.1-6.77-1.54-9.19-4.03-2.42-2.49-3.78-5.82-3.78-9.3s1.35-6.81,3.78-9.3c2.42-2.49,5.72-3.93,9.19-4.03H118.57c.37,.05,.74,.08,1.11,.09h.69c.39,0,.77,0,1.15-.09,3.26-.37,6.26-1.92,8.45-4.36,2.18-2.44,3.39-5.6,3.39-8.88v-.67c-.14-3.38-1.56-6.58-3.98-8.95-2.41-2.37-5.64-3.73-9.02-3.8h-40.36c-.11,.01-.23,.01-.34,0-3.01-.07-5.9-1.16-8.21-3.09s-3.9-4.57-4.51-7.52c-.61-2.94-.21-6.01,1.13-8.69,1.35-2.69,3.56-4.84,6.29-6.11,1.66-.78,3.47-1.2,5.3-1.24h40.69c3.47-.1,6.77-1.54,9.19-4.03,2.42-2.49,3.78-5.82,3.78-9.29s-1.35-6.81-3.78-9.3c-2.42-2.49-5.72-3.93-9.19-4.03H0v-26.74H134.21c8.69,.22,16.95,3.83,23.02,10.06,6.07,6.23,9.46,14.58,9.44,23.27v126.7h53.33c.12,0,.23,0,.35,0,3.48-.09,6.78-1.53,9.21-4.02,2.43-2.49,3.79-5.83,3.79-9.31v-106.7c0-3.48-1.36-6.82-3.79-9.32-2.43-2.49-5.74-3.94-9.21-4.02h-7.35c-3.47-.1-6.77-1.54-9.19-4.03-2.42-2.49-3.78-5.82-3.78-9.3s1.35-6.81,3.78-9.3c2.42-2.49,5.72-3.93,9.19-4.03h21.22c8.69,.22,16.94,3.83,23.01,10.06,6.06,6.22,9.45,14.57,9.44,23.26v126.7h53.68c3.47,.09,6.77,1.53,9.2,4.01,2.43,2.48,3.79,5.82,3.79,9.29Z"/></svg>