<?xml version="1.0" encoding="UTF-8"?><svg id="a" xmlns="http://www.w3.org/2000/svg" viewBox="0 0 800 800"><defs><style>.b{fill:#f6f0eb;}.c{fill:#232e41;}</style></defs><path class="b" d="M701.68,.22H98.32C44.02,.22,0,44.24,0,98.54V701.9C0,756.2,44.02,800.22,98.32,800.22H701.68c54.3,0,98.32-44.02,98.32-98.32V98.54C800,44.24,755.98,.22,701.68,.22Z"/><path class="c" d="M533.34,480.22c0,3.48-1.36,6.82-3.78,9.31-2.43,2.49-5.74,3.93-9.22,4.02H0v-26.66H320c.12,0,.23,0,.35,0,3.47-.1,6.77-1.54,9.19-4.03,2.42-2.49,3.78-5.82,3.78-9.29s-1.35-6.81-3.78-9.3c-2.42-2.49-5.72-3.93-9.19-4.03h-74c-3.47-.1-6.77-1.54-9.19-4.03-2.42-2.49-3.78-5.82-3.78-9.3s1.35-6.81,3.78-9.3c2.42-2.49,5.72-3.93,9.19-4.03h72.22c.37,.05,.74,.08,1.11,.09h.69c.39,0,.77,0,1.15-.09,3.26-.37,6.26-1.92,8.45-4.36,2.18-2.44,3.39-5.6,3.39-8.88v-.67c-.14-3.38-1.56-6.58-3.98-8.95-2.41-2.37-5.64-3.73-9.02-3.8h-40.36c-.11,.01-.23,.01-.34,0-3.01-.07-5.9-1.16-8.21-3.09s-3.9-4.57-4.51-7.52c-.61-2.94-.21-6.01,1.13-8.69,1.35-2.69,3.56-4.84,6.29-6.11,1.66-.78,3.47-1.2,5.3-1.24h40.69c3.47-.1,6.77-1.54,9.19-4.03,2.42-2.49,3.78-5.82,3.78-9.29s-1.35-6.81-3.78-9.3c-2.42-2.49-5.72-3.93-9.19-4.03H0v-26.74H334.21c8.69,.22,16.95,3.83,23.02,10.06,6.07,6.23,9.46,14.58,9.44,23.27v126.7h53.33c.12,0,.23,0,.35,0,3.48-.09,6.78-1.53,9.21-4.02,2.43-2.49,3.79-5.83,3.79-9.31v-106.7c0-3.48-1.36-6.82-3.79-9.32-2.43-2.49-5.74-3.94-9.21-4.02h-7.35c-3.47-.1-6.77-1.54-9.19-4.03-2.42-2.49-3.78-5.82-3.78-9.3s1.35-6.81,3.78-9.3c2.42-2.49,5.72-3.93,9.19-4.03h21.22c8.69,.22,16.94,3.83,23.01,10.06,6.06,6.22,9.45,14.57,9.44,23.26v126.7h53.68c3.47,.09,6.77,1.53,9.2,4.01,2.43,2.48,3.79,5.82,3.79,9.29Z"/></svg>