<svg xmlns="http://www.w3.org/2000/svg" viewBox="201 1386 1601 228" width="1601" height="228">
  <title>MOBIDICTUM (white)</title>
  <path fill-rule="nonzero" fill="rgb(0%, 0%, 0%)" fill-opacity="1" d="M 574.546875 1500 C 574.546875 1534.339844 546.710938 1562.175781 512.371094 1562.175781 C 478.03125 1562.175781 450.191406 1534.339844 450.191406 1500 C 450.191406 1465.660156 478.03125 1437.824219 512.371094 1437.824219 C 546.710938 1437.824219 574.546875 1465.660156 574.546875 1500 "/>
  <path fill-rule="nonzero" fill="rgb(100%, 100%, 100%)" fill-opacity="1" d="M 662.691406 1550.628906 L 697.082031 1550.628906 C 712.84375 1550.628906 722.632812 1543.703125 722.632812 1531.765625 C 722.632812 1520.539062 712.84375 1513.613281 697.082031 1513.613281 L 662.691406 1513.613281 Z M 662.691406 1483.046875 L 697.082031 1483.046875 C 709.5 1483.046875 717.378906 1476.359375 717.378906 1465.613281 C 717.378906 1454.863281 709.5 1448.65625 697.082031 1448.65625 L 662.691406 1448.65625 Z M 699.46875 1416.179688 C 736.964844 1416.179688 760.84375 1432.417969 760.84375 1457.96875 C 760.84375 1475.640625 749.859375 1489.730469 732.1875 1494.746094 C 753.203125 1498.808594 766.574219 1515.285156 766.574219 1537.015625 C 766.574219 1565.4375 741.738281 1583.347656 702.335938 1583.347656 L 620.421875 1583.347656 L 620.421875 1416.179688 "/>
  <path fill-rule="nonzero" fill="rgb(100%, 100%, 100%)" fill-opacity="1" d="M 1252.78125 1442.925781 L 1228.179688 1472.058594 C 1217.191406 1458.6875 1200.949219 1450.328125 1186.148438 1450.328125 C 1159.640625 1450.328125 1139.578125 1471.34375 1139.578125 1498.808594 C 1139.578125 1526.746094 1159.640625 1548 1186.148438 1548 C 1200.238281 1548 1216.46875 1540.359375 1228.179688 1528.417969 L 1253.011719 1554.6875 C 1235.101562 1573.074219 1208.601562 1585.257812 1184 1585.257812 C 1133.609375 1585.257812 1096.109375 1548.242188 1096.109375 1499.285156 C 1096.109375 1451.042969 1134.570312 1414.746094 1185.429688 1414.746094 C 1210.269531 1414.746094 1236.058594 1425.730469 1252.78125 1442.925781 "/>
  <path fill-rule="nonzero" fill="rgb(100%, 100%, 100%)" fill-opacity="1" d="M 1354.5 1450.328125 L 1354.5 1583.347656 L 1311.988281 1583.347656 L 1311.988281 1450.328125 L 1262.070312 1450.328125 L 1262.070312 1415.9375 L 1404.890625 1415.9375 L 1404.890625 1450.328125 "/>
  <path fill-rule="nonzero" fill="rgb(100%, 100%, 100%)" fill-opacity="1" d="M 1573.480469 1513.132812 C 1573.480469 1557.316406 1544.109375 1585.257812 1497.300781 1585.257812 C 1450.261719 1585.257812 1420.160156 1557.316406 1420.160156 1513.132812 L 1420.160156 1416.179688 L 1462.671875 1416.179688 L 1462.671875 1513.132812 C 1462.671875 1535.820312 1477.238281 1549.671875 1497.539062 1549.671875 C 1517.601562 1549.671875 1531.210938 1535.820312 1531.210938 1513.132812 L 1531.210938 1416.179688 L 1573.480469 1416.179688 "/>
  <path fill-rule="nonzero" fill="rgb(100%, 100%, 100%)" fill-opacity="1" d="M 929.433594 1416.179688 L 857.550781 1416.179688 L 857.550781 1450.089844 L 928.480469 1450.089844 C 955.464844 1450.089844 975.046875 1470.386719 975.046875 1500 C 975.046875 1529.375 956.421875 1549.433594 930.390625 1549.433594 L 900.0625 1549.433594 L 900.0625 1482.550781 L 857.550781 1482.550781 L 857.550781 1583.347656 L 927.761719 1583.347656 C 981.496094 1583.347656 1018.269531 1549.195312 1018.269531 1499.761719 C 1018.269531 1450.089844 981.972656 1416.179688 929.433594 1416.179688 "/>
  <path fill-rule="nonzero" fill="rgb(100%, 100%, 100%)" fill-opacity="1" d="M 271.777344 1415.9375 L 225.207031 1415.9375 L 225.207031 1583.347656 L 263.179688 1583.347656 L 263.179688 1474.6875 L 303.300781 1566.632812 L 331.003906 1566.632812 L 335.253906 1556.886719 "/>
  <path fill-rule="nonzero" fill="rgb(100%, 100%, 100%)" fill-opacity="1" d="M 362.523438 1415.9375 L 330.410156 1486.425781 L 348.558594 1526.394531 L 371.121094 1474.6875 L 371.359375 1583.347656 L 408.855469 1583.347656 L 408.855469 1415.9375 "/>
  <path fill-rule="nonzero" fill="rgb(100%, 100%, 100%)" fill-opacity="1" d="M 1640.769531 1415.9375 L 1594.488281 1415.9375 L 1594.488281 1583.347656 L 1632.460938 1583.347656 L 1632.460938 1474.6875 L 1672.578125 1566.632812 L 1700.28125 1566.632812 L 1704.390625 1557.207031 "/>
  <path fill-rule="nonzero" fill="rgb(100%, 100%, 100%)" fill-opacity="1" d="M 1731.808594 1415.9375 L 1699.539062 1486.738281 L 1717.699219 1526.714844 L 1740.398438 1474.6875 L 1740.640625 1583.347656 L 1778.128906 1583.347656 L 1778.128906 1415.9375 "/>
  <path fill-rule="nonzero" fill="rgb(100%, 100%, 100%)" fill-opacity="1" d="M 828.898438 1441.5625 L 828.898438 1416.179688 L 786.390625 1416.179688 L 786.390625 1455.28125 Z M 828.898438 1441.5625 "/>
  <path fill-rule="nonzero" fill="rgb(100%, 100%, 100%)" fill-opacity="1" d="M 786.390625 1467.214844 L 786.390625 1583.347656 L 828.898438 1583.347656 L 828.898438 1453.496094 Z M 786.390625 1467.214844 "/>
  <path fill-rule="nonzero" fill="rgb(100%, 100%, 100%)" fill-opacity="1" d="M 1078.449219 1441.5625 L 1078.449219 1416.179688 L 1035.941406 1416.179688 L 1035.941406 1455.28125 Z M 1078.449219 1441.5625 "/>
  <path fill-rule="nonzero" fill="rgb(100%, 100%, 100%)" fill-opacity="1" d="M 1035.941406 1467.214844 L 1035.941406 1583.347656 L 1078.449219 1583.347656 L 1078.449219 1453.496094 Z M 1035.941406 1467.214844 "/>
  <path fill-rule="nonzero" fill="rgb(74.414062%, 8.59375%, 14.501953%)" fill-opacity="1" d="M 512.371094 1550.25 C 484.617188 1550.25 462.121094 1527.753906 462.121094 1500 C 462.121094 1472.25 484.617188 1449.753906 512.371094 1449.753906 C 540.121094 1449.753906 562.617188 1472.25 562.617188 1500 C 562.617188 1527.753906 540.121094 1550.25 512.371094 1550.25 M 512.371094 1409.609375 C 462.449219 1409.609375 421.980469 1450.078125 421.980469 1500 C 421.980469 1549.921875 462.449219 1590.390625 512.371094 1590.390625 C 562.289062 1590.390625 602.761719 1549.921875 602.761719 1500 C 602.761719 1450.078125 562.289062 1409.609375 512.371094 1409.609375 "/>
  <path fill-rule="nonzero" fill="rgb(100%, 100%, 100%)" fill-opacity="1" d="M 536.878906 1500 C 536.878906 1513.535156 525.90625 1524.507812 512.371094 1524.507812 C 498.832031 1524.507812 487.859375 1513.535156 487.859375 1500 C 487.859375 1486.464844 498.832031 1475.492188 512.371094 1475.492188 C 525.90625 1475.492188 536.878906 1486.464844 536.878906 1500 "/>
</svg>
