<svg width="1098" height="721" viewBox="0 0 1098 721" fill="none" xmlns="http://www.w3.org/2000/svg">
<path d="M745.53 151C736.189 151 727.058 153.772 719.291 158.965C711.524 164.157 705.471 171.538 701.896 180.174C698.321 188.809 697.386 198.311 699.208 207.479C701.031 216.646 705.529 225.067 712.134 231.676C718.739 238.285 727.155 242.786 736.316 244.61C745.478 246.433 754.974 245.497 763.604 241.921C772.234 238.344 779.61 232.286 784.799 224.515C789.989 216.743 792.759 207.606 792.759 198.259C792.715 185.739 787.725 173.744 778.877 164.891C770.03 156.037 758.042 151.044 745.53 151ZM745.53 217.592C741.703 217.592 737.962 216.457 734.78 214.329C731.598 212.202 729.118 209.178 727.654 205.64C726.189 202.102 725.806 198.21 726.553 194.454C727.3 190.698 729.142 187.248 731.848 184.541C734.554 181.833 738.002 179.989 741.755 179.242C745.508 178.495 749.399 178.878 752.934 180.344C756.47 181.809 759.492 184.291 761.618 187.475C763.744 190.659 764.879 194.402 764.879 198.231C764.835 203.352 762.783 208.252 759.163 211.873C755.544 215.495 750.648 217.548 745.53 217.592ZM755.762 286.807C754.467 285.508 752.929 284.477 751.235 283.774C749.542 283.071 747.726 282.709 745.892 282.709C744.059 282.709 742.243 283.071 740.55 283.774C738.856 284.477 737.318 285.508 736.023 286.807L703.487 319.364C702.155 320.65 701.093 322.19 700.363 323.891C699.632 325.593 699.248 327.424 699.231 329.276C699.215 331.128 699.568 332.965 700.269 334.679C700.97 336.393 702.005 337.951 703.314 339.26C704.623 340.57 706.179 341.606 707.892 342.307C709.606 343.008 711.441 343.361 713.292 343.345C715.143 343.329 716.972 342.944 718.673 342.213C720.374 341.482 721.912 340.42 723.198 339.087L731.924 330.355V352.088C731.917 358.264 729.462 364.184 725.098 368.551C720.734 372.918 714.816 375.375 708.645 375.382H409.463C395.899 375.397 382.895 380.795 373.303 390.393C363.712 399.99 358.317 413.002 358.303 426.575V470.124C347.502 473.462 338.256 480.567 332.245 490.146C326.234 499.726 323.856 511.146 325.543 522.331C327.23 533.515 332.87 543.724 341.44 551.101C350.009 558.479 360.938 562.536 372.243 562.536C383.547 562.536 394.477 558.479 403.046 551.101C411.615 543.724 417.256 533.515 418.943 522.331C420.63 511.146 418.252 499.726 412.241 490.146C406.229 480.567 396.984 473.462 386.183 470.124V426.575C386.19 420.399 388.645 414.478 393.01 410.111C397.374 405.744 403.291 403.288 409.463 403.28H708.7C722.264 403.266 735.268 397.867 744.86 388.27C754.451 378.673 759.846 365.66 759.86 352.088V330.355L768.587 339.087C769.86 340.47 771.4 341.581 773.114 342.353C774.827 343.125 776.679 343.542 778.558 343.58C780.437 343.617 782.304 343.274 784.047 342.572C785.79 341.869 787.373 340.821 788.701 339.49C790.029 338.159 791.074 336.574 791.774 334.829C792.474 333.084 792.814 331.215 792.774 329.335C792.734 327.455 792.314 325.602 791.54 323.889C790.766 322.175 789.654 320.636 788.27 319.364L755.762 286.807ZM372.271 534.596C368.444 534.596 364.703 533.46 361.521 531.333C358.339 529.205 355.859 526.181 354.395 522.644C352.93 519.106 352.547 515.213 353.294 511.457C354.04 507.702 355.883 504.252 358.589 501.544C361.295 498.836 364.743 496.992 368.496 496.245C372.249 495.498 376.14 495.882 379.675 497.347C383.211 498.813 386.233 501.294 388.359 504.478C390.485 507.662 391.619 511.405 391.619 515.234C391.576 520.356 389.523 525.255 385.904 528.876C382.285 532.498 377.389 534.552 372.271 534.596Z" fill="black"/>
<path d="M312.06 355.324L256.021 411.427C253.677 413.786 250.556 415.214 247.239 415.444H245.901C245.539 415.472 245.175 415.472 244.813 415.444C241.516 415.201 238.417 413.774 236.087 411.427L203.913 379.26C201.374 376.629 199.969 373.106 200.001 369.449C200.032 365.791 201.498 362.293 204.083 359.706C206.668 357.12 210.164 355.653 213.819 355.621C217.474 355.59 220.995 356.996 223.624 359.536L245.929 381.855L292.349 335.6C293.635 334.268 295.173 333.205 296.874 332.474C298.575 331.743 300.404 331.358 302.255 331.342C304.106 331.326 305.941 331.679 307.654 332.38C309.368 333.082 310.924 334.118 312.233 335.427C313.542 336.737 314.577 338.294 315.278 340.009C315.979 341.723 316.331 343.56 316.315 345.412C316.299 347.264 315.915 349.094 315.184 350.796C314.454 352.498 313.392 354.037 312.06 355.324Z" fill="black"/>
<path d="M591.542 544.751L535.364 600.77C533.02 603.13 529.899 604.558 526.581 604.787H525.243C524.881 604.815 524.518 604.815 524.156 604.787C520.839 604.558 517.718 603.13 515.374 600.77L483.256 568.687C481.924 567.401 480.862 565.861 480.132 564.16C479.401 562.458 479.017 560.627 479.001 558.775C478.984 556.923 479.337 555.086 480.038 553.372C480.739 551.658 481.774 550.1 483.083 548.791C484.392 547.481 485.948 546.445 487.661 545.744C489.375 545.043 491.21 544.69 493.061 544.706C494.912 544.722 496.741 545.107 498.442 545.838C500.143 546.569 501.681 547.631 502.967 548.964L525.271 571.282L571.58 524.916C574.209 522.375 577.73 520.969 581.385 521.001C585.041 521.032 588.537 522.499 591.121 525.086C593.706 527.672 595.172 531.17 595.204 534.828C595.236 538.485 593.831 542.009 591.291 544.639L591.542 544.751Z" fill="black"/>
<path d="M482.845 264.544C480.305 261.914 478.9 258.39 478.932 254.733C478.964 251.075 480.43 247.577 483.014 244.99C485.599 242.404 489.095 240.937 492.75 240.905C496.405 240.874 499.927 242.28 502.556 244.821L520.622 263.01L538.8 244.821C541.429 242.28 544.95 240.874 548.606 240.905C552.261 240.937 555.757 242.404 558.342 244.99C560.926 247.577 562.392 251.075 562.424 254.733C562.456 258.39 561.051 261.914 558.511 264.544L540.333 282.734L558.511 300.923C559.843 302.21 560.905 303.749 561.635 305.451C562.366 307.153 562.75 308.983 562.767 310.835C562.783 312.687 562.43 314.524 561.729 316.238C561.028 317.953 559.993 319.51 558.684 320.82C557.375 322.13 555.819 323.165 554.106 323.867C552.392 324.568 550.557 324.921 548.706 324.905C546.855 324.889 545.026 324.504 543.325 323.773C541.624 323.042 540.086 321.979 538.8 320.647L520.622 302.458L502.444 320.647C499.83 323.266 496.284 324.739 492.585 324.742C488.885 324.744 485.337 323.276 482.719 320.661C480.102 318.045 478.63 314.496 478.627 310.795C478.624 307.093 480.091 303.542 482.705 300.923L501.106 282.734L482.845 264.544Z" fill="#7F7F7F"/>
<path d="M720.132 466.999C717.592 464.368 716.187 460.845 716.219 457.187C716.251 453.53 717.717 450.031 720.301 447.445C722.886 444.859 726.382 443.392 730.037 443.36C733.692 443.328 737.214 444.734 739.843 447.275L758.021 465.465L776.198 447.275C778.828 444.734 782.349 443.328 786.004 443.36C789.659 443.392 793.155 444.859 795.74 447.445C798.325 450.031 799.791 453.53 799.822 457.187C799.854 460.845 798.449 464.368 795.91 466.999L777.732 485.188L795.91 503.378C798.449 506.009 799.854 509.532 799.822 513.19C799.791 516.847 798.325 520.345 795.74 522.932C793.155 525.518 789.659 526.985 786.004 527.017C782.349 527.049 778.828 525.643 776.198 523.102L758.021 504.912L739.843 523.102C737.229 525.721 733.682 527.194 729.983 527.196C726.284 527.199 722.735 525.731 720.118 523.116C717.5 520.5 716.028 516.951 716.025 513.25C716.023 509.548 717.49 505.997 720.104 503.378L738.282 485.188L720.132 466.999Z" fill="#7F7F7F"/>
<path d="M869.124 255.422C866.585 252.791 865.18 249.267 865.211 245.61C865.243 241.953 866.709 238.454 869.294 235.868C871.878 233.282 875.375 231.815 879.03 231.783C882.685 231.751 886.206 233.157 888.835 235.698L907.013 253.887L925.191 235.698C927.82 233.157 931.341 231.751 934.997 231.783C938.652 231.815 942.148 233.282 944.732 235.868C947.317 238.454 948.783 241.953 948.815 245.61C948.847 249.267 947.442 252.791 944.902 255.422L926.752 273.751L944.93 291.94C947.469 294.571 948.875 298.094 948.843 301.752C948.811 305.409 947.345 308.908 944.76 311.494C942.176 314.08 938.679 315.547 935.024 315.579C931.369 315.611 927.848 314.205 925.219 311.664L907.041 293.279L888.863 311.469C886.222 313.912 882.738 315.239 879.142 315.172C875.545 315.105 872.113 313.65 869.564 311.11C867.015 308.57 865.546 305.142 865.464 301.544C865.382 297.945 866.693 294.454 869.124 291.801L887.302 273.751L869.124 255.422Z" fill="#7F7F7F"/>
<path d="M244.5 239.792C248.564 237.446 253.572 237.446 257.637 239.792L288.726 257.742C292.791 260.089 295.295 264.425 295.295 269.119V305.018C295.295 309.711 292.791 314.048 288.726 316.395L257.637 334.344C253.572 336.691 248.564 336.691 244.5 334.344L213.41 316.395C209.346 314.048 206.842 309.711 206.842 305.018V269.119C206.842 264.425 209.346 260.089 213.41 257.742L244.5 239.792Z" fill="#2B2B2B"/>
<path d="M246.254 294.125H236.45L234.783 299.812H231.842L238.77 276.935H243.934L250.862 299.812H247.921L246.254 294.125ZM241.156 278.111L237.201 291.576H245.503L241.548 278.111H241.156ZM253.781 276.935H268.292V279.484H262.409V297.263H268.292V299.812H253.781V297.263H259.664V279.484H253.781V276.935Z" fill="#F6F0EB"/>
<path d="M414.88 84.0202C412.958 114.165 387.22 137.276 357.027 137.276H97.718C93.0093 137.277 88.3514 136.303 84.0367 134.417C79.7219 132.531 75.8434 129.774 72.6447 126.317C69.4459 122.861 66.996 118.78 65.4486 114.332C63.9012 109.883 63.2898 105.163 63.6528 100.467C64.9625 83.0804 81.0057 68.9263 98.4298 68.9263H120.495C122.136 68.9284 123.758 68.5757 125.25 67.8923C126.743 67.2089 128.07 66.2109 129.14 64.9668C130.211 63.7226 131 62.2616 131.454 60.6839C131.908 59.1062 132.015 57.449 131.769 55.8258C131.304 53.0894 129.876 50.6095 127.743 48.8338C125.611 47.0581 122.913 46.1037 120.139 46.1429H52.1649C43.1038 46.1429 34.4138 42.5424 28.0067 36.1333C21.5995 29.7242 18 21.0317 18 11.9679C18.038 8.07737 18.7509 4.22293 20.1068 0.576263H52.1649C50.5263 0.576468 48.907 0.930386 47.4176 1.61386C45.9282 2.29733 44.6039 3.29426 43.5349 4.53656C42.466 5.77886 41.6776 7.23726 41.2237 8.81222C40.7698 10.3872 40.661 12.0416 40.9047 13.6624C41.3639 16.4028 42.7897 18.8878 44.9234 20.6669C47.0571 22.4459 49.7575 23.4012 52.535 23.3596H120.495C125.202 23.3595 129.859 24.3325 134.172 26.2175C138.486 28.1025 142.364 30.8589 145.562 34.3137C148.761 37.7686 151.211 41.8473 152.759 46.2941C154.308 50.7409 154.921 55.4598 154.56 60.1547C153.236 77.5412 137.221 91.7096 119.797 91.7096H97.718C96.0794 91.7098 94.4601 92.0637 92.9708 92.7472C91.4814 93.4307 90.157 94.4276 89.0881 95.6699C88.0191 96.9122 87.2308 98.3706 86.7768 99.9456C86.3229 101.521 86.2141 103.175 86.4578 104.796C86.9171 107.536 88.3428 110.021 90.4766 111.8C92.6103 113.579 95.3107 114.535 98.0881 114.493H358.052C362.761 114.493 367.419 113.52 371.733 111.634C376.048 109.748 379.927 106.99 383.125 103.534C386.324 100.078 388.774 95.9971 390.321 91.5486C391.869 87.1001 392.48 82.3797 392.117 77.6836C390.822 60.2971 374.779 46.1429 357.354 46.1429H335.275C326.214 46.1429 317.524 42.5424 311.117 36.1333C304.71 29.7242 301.111 21.0317 301.111 11.9679C301.149 8.07737 301.861 4.22293 303.217 0.576263H335.275C332.255 0.576263 329.358 1.77645 327.223 3.9128C325.087 6.04915 323.887 8.94667 323.887 11.9679C323.887 14.9892 325.087 17.8867 327.223 20.0231C329.358 22.1594 332.255 23.3596 335.275 23.3596H358.052C365.842 23.3587 373.549 24.9567 380.697 28.0547C387.845 31.1528 394.281 35.685 399.608 41.3709C404.935 47.0568 409.038 53.7755 411.665 61.1115C414.292 68.4474 415.386 76.2444 414.88 84.0202Z" fill="#7F7F7F"/>
<path d="M1097.88 639.052C1095.99 609.447 1070.68 586.75 1040.99 586.75H840.398C835.768 586.75 831.187 587.706 826.944 589.558C822.7 591.41 818.886 594.118 815.74 597.513C812.594 600.907 810.185 604.914 808.663 609.283C807.141 613.652 806.54 618.288 806.897 622.9C808.185 639.975 823.963 653.875 841.098 653.875H862.798C864.412 653.873 866.008 654.219 867.475 654.89C868.943 655.562 870.248 656.542 871.301 657.764C872.354 658.985 873.13 660.42 873.576 661.97C874.022 663.519 874.128 665.147 873.886 666.741C873.429 669.428 872.024 671.864 869.927 673.607C867.829 675.351 865.177 676.289 862.448 676.25H795.599C786.688 676.25 778.142 679.786 771.841 686.08C765.54 692.374 762 700.911 762 709.812C762.037 713.633 762.738 717.419 764.072 721H795.599C793.988 721 792.395 720.652 790.931 719.981C789.466 719.31 788.164 718.331 787.112 717.111C786.061 715.891 785.286 714.458 784.839 712.912C784.393 711.365 784.286 709.74 784.526 708.148C784.977 705.457 786.379 703.017 788.478 701.269C790.576 699.522 793.232 698.584 795.963 698.625H862.798C867.428 698.625 872.007 697.67 876.249 695.818C880.492 693.967 884.305 691.26 887.451 687.867C890.596 684.474 893.006 680.469 894.529 676.102C896.052 671.734 896.654 667.1 896.299 662.489C894.997 645.414 879.248 631.5 862.112 631.5H840.398C838.787 631.5 837.195 631.152 835.73 630.481C834.265 629.81 832.963 628.831 831.911 627.611C830.86 626.391 830.085 624.958 829.638 623.412C829.192 621.865 829.085 620.24 829.325 618.648C829.776 615.957 831.178 613.517 833.277 611.769C835.375 610.022 838.031 609.084 840.762 609.125H1041.99C1046.63 609.125 1051.21 610.081 1055.45 611.933C1059.69 613.785 1063.51 616.493 1066.65 619.888C1069.8 623.282 1072.21 627.289 1073.73 631.658C1075.25 636.027 1075.85 640.663 1075.5 645.275C1074.22 662.35 1058.44 676.25 1041.31 676.25H1019.6C1010.68 676.25 1002.14 679.786 995.837 686.08C989.536 692.374 985.996 700.911 985.996 709.812C986.033 713.633 986.734 717.419 988.068 721H1019.6C1016.62 721 1013.78 719.821 1011.68 717.723C1009.58 715.625 1008.4 712.78 1008.4 709.812C1008.4 706.845 1009.58 704 1011.68 701.902C1013.78 699.804 1016.62 698.625 1019.6 698.625H1041.99C1049.66 698.626 1057.24 697.057 1064.26 694.014C1071.29 690.972 1077.62 686.521 1082.86 680.937C1088.1 675.353 1092.14 668.754 1094.72 661.55C1097.3 654.345 1098.38 646.688 1097.88 639.052Z" fill="#7F7F7F"/>
<path d="M54.75 554C54.75 550.272 51.728 547.25 48 547.25C44.272 547.25 41.25 550.272 41.25 554V635C41.25 638.728 44.272 641.75 48 641.75C51.728 641.75 54.75 638.728 54.75 635V554Z" fill="black"/>
<path d="M75 557.375C78.728 557.375 81.75 560.397 81.75 564.125V624.875C81.75 628.603 78.728 631.625 75 631.625C71.272 631.625 68.25 628.603 68.25 624.875V564.125C68.25 560.397 71.272 557.375 75 557.375Z" fill="black"/>
<path d="M108.75 540.5C108.75 536.772 105.728 533.75 102 533.75C98.272 533.75 95.25 536.772 95.25 540.5V648.5C95.25 652.228 98.272 655.25 102 655.25C105.728 655.25 108.75 652.228 108.75 648.5V540.5Z" fill="black"/>
<path d="M129 550.625C132.728 550.625 135.75 553.647 135.75 557.375V631.625C135.75 635.353 132.728 638.375 129 638.375C125.272 638.375 122.25 635.353 122.25 631.625V557.375C122.25 553.647 125.272 550.625 129 550.625Z" fill="black"/>
<path d="M162.75 574.25C162.75 570.522 159.728 567.5 156 567.5C152.272 567.5 149.25 570.522 149.25 574.25V614.75C149.25 618.478 152.272 621.5 156 621.5C159.728 621.5 162.75 618.478 162.75 614.75V574.25Z" fill="black"/>
<path fill-rule="evenodd" clip-rule="evenodd" d="M41.25 506.75C18.8825 506.75 0.75 524.882 0.75 547.25V641.75C0.75 664.117 18.8825 682.25 41.25 682.25H75.3122L96.92 706.945C98.2018 708.41 100.054 709.25 102 709.25C103.946 709.25 105.798 708.41 107.08 706.945L128.688 682.25H162.75C185.117 682.25 203.25 664.117 203.25 641.75V547.25C203.25 524.882 185.117 506.75 162.75 506.75H41.25ZM14.25 547.25C14.25 532.338 26.3383 520.25 41.25 520.25H162.75C177.662 520.25 189.75 532.338 189.75 547.25V641.75C189.75 656.662 177.662 668.75 162.75 668.75H125.625C123.679 668.75 121.827 669.59 120.545 671.055L102 692.249L83.455 671.055C82.1732 669.59 80.3214 668.75 78.375 668.75H41.25C26.3383 668.75 14.25 656.662 14.25 641.75V547.25Z" fill="black"/>
</svg>
