<?xml version="1.0" encoding="utf-8"?>
<!-- Generator: Adobe Illustrator 24.0.1, SVG Export Plug-In . SVG Version: 6.00 Build 0)  -->
<svg version="1.1" id="Layer_1" xmlns="http://www.w3.org/2000/svg" xmlns:xlink="http://www.w3.org/1999/xlink" x="0px" y="0px"
	 viewBox="0 0 370.7 80" style="enable-background:new 0 0 370.7 80;" xml:space="preserve">
<style type="text/css">
	.st0{fill:#FFFFFF;}
</style>
<g>
	<g>
		<path class="st0" d="M59.2,27.4l0,25.5c0,0.3-0.2,0.6-0.4,0.7L36.7,66.3c-0.3,0.2-0.6,0.2-0.9,0l-22-12.8
			c-0.3-0.2-0.4-0.4-0.4-0.7l0-25.5c0-0.3,0.2-0.6,0.4-0.7l22.1-12.7c0.3-0.2,0.6-0.2,0.9,0l22,12.8C59.1,26.8,59.2,27.1,59.2,27.4z
			 M37.8,71.1L62.3,57c1-0.6,1.6-1.6,1.6-2.7l0-28.3c0-1.1-0.6-2.1-1.6-2.7L37.9,9c-1-0.6-2.2-0.6-3.1,0L10.2,23.2
			c-1,0.6-1.6,1.6-1.6,2.7l0,28.3c0,1.1,0.6,2.1,1.6,2.7l24.5,14.2c0.5,0.3,1,0.4,1.6,0.4C36.8,71.5,37.3,71.4,37.8,71.1z
			 M36.9,10.7l24.5,14.2c0.4,0.2,0.6,0.6,0.6,1.1l0,28.3c0,0.4-0.2,0.8-0.6,1.1L36.9,69.5c-0.4,0.2-0.9,0.2-1.2,0L11.1,55.3
			c-0.4-0.2-0.6-0.6-0.6-1.1l0-28.3c0-0.4,0.2-0.8,0.6-1.1l24.6-14.1c0.2-0.1,0.4-0.2,0.6-0.2C36.5,10.5,36.8,10.6,36.9,10.7z
			 M44.2,29.8H28.4c-1.3,0-1.8,0.5-1.8,1.8v15.6c0,0.1,0,0.3,0,0.4c0,0.3,0,0.6,0.3,0.9c0,0,0.3,0.2,0.3,0.2
			c0.1,0.1,0.2,0.1,0.4,0.2l7.8,3.3c0.4,0.2,0.6,0.3,0.9,0.3v0c0,0,0,0,0,0s0,0,0,0v0c0.3,0,0.5-0.1,0.9-0.3l7.8-3.3
			c0.2-0.1,0.3-0.1,0.4-0.2c0,0,0.3-0.2,0.3-0.2c0.3-0.3,0.3-0.6,0.3-0.9c0-0.1,0-0.3,0-0.4V31.5C46,30.2,45.5,29.8,44.2,29.8z
			 M30.8,38.4l2.7,2.7l-0.6,3.8l3.4-1.8l3.4,1.8L39,41l2.7-2.7L38,37.8l-1.7-3.4l-1.7,3.4L30.8,38.4z"/>
	</g>
	<g>
		<path class="st0" d="M75.9,32h11.3v3.1h-7.8v4.1h6.7v2.9h-6.7v4.2h7.9v3.1H75.9V32z"/>
		<path class="st0" d="M89.4,32h7.8c3.1,0,5,2.1,5,5.5c0,3.3-1.9,5.5-5,5.5H93v6.4h-3.5V32z M96.6,39.9c1,0,2.1-0.7,2.1-2.4
			c0-1.7-1-2.4-2.1-2.4H93v4.8H96.6z"/>
		<path class="st0" d="M104.2,32h3.5v17.4h-3.5V32z"/>
		<path class="st0" d="M110.4,43.5v-5.6c0-4,2.4-6.3,6.8-6.3c3.4,0,6.5,1.8,6.5,6.1V38h-3.5v-0.2c0-2.1-1.5-2.9-3.2-2.9
			c-2.1,0-3.1,1.1-3.1,2.8v6.1c0,1.7,1,2.8,3.1,2.8c1.6,0,3.2-0.7,3.2-2.9v-0.2h3.5v0.2c0,4.3-3,6.1-6.5,6.1
			C112.8,49.8,110.4,47.5,110.4,43.5z"/>
		<path class="st0" d="M137.5,44l-3.4-5.7v11.1h-3.4V32h3.4l4.6,7.7l4.6-7.7h3.3v17.4h-3.4V38.3l-3.4,5.7H137.5z"/>
		<path class="st0" d="M148.8,44.9v-4c0-3,2.3-4.8,5.7-4.8c3.2,0,5.4,1.7,5.4,4.8v3.1h-7.9v0.9c0,1.1,0.8,1.9,2.4,1.9
			c1.2,0,1.9-0.5,2.2-1.3h3.2c-0.2,2.7-2.2,4.3-5.4,4.3C151.1,49.7,148.8,48,148.8,44.9z M156.7,41.5v-0.6c0-1.1-0.8-1.8-2.3-1.8
			c-1.5,0-2.3,0.7-2.3,1.8v0.6H156.7z"/>
		<path class="st0" d="M172.9,48.6c0,3.4-2.3,5.1-5.6,5.1c-3.3,0-5.4-1.6-5.4-4.3v-0.1h3.2v0.1c0,0.6,0.5,1.3,2.2,1.3
			c1.7,0,2.4-0.9,2.4-2.1v-1.5c-0.5,0.5-1.6,1.2-3.5,1.2c-2.5,0-4.6-1.5-4.6-4.8v-2.7c0-3.3,2.1-4.8,4.6-4.8c1.9,0,3,0.7,3.9,1.6
			l0.9-1.3h1.9V48.6z M169.7,40.4c-0.6-0.6-1.5-1.4-2.8-1.4c-1,0-2.1,0.7-2.1,2.1v2.2c0,1.4,1.1,2.1,2.1,2.1c1.3,0,2.1-0.7,2.8-1.4
			V40.4z"/>
		<path class="st0" d="M174.7,45.8c0-2.7,1.7-4.2,5.3-4.2h2.7v-0.8c0-1.1-0.6-1.8-2.1-1.8c-1.5,0-2.1,0.6-2.1,1.5h-3.2
			c0-2.6,1.7-4.4,5.2-4.4c3.6,0,5.3,1.9,5.3,4.5v8.9H184l-0.9-1.3c-0.9,0.9-2.1,1.6-4,1.6C176.7,49.7,174.7,48.4,174.7,45.8z
			 M182.7,45.5V44H180c-1.7,0-2,0.8-2,1.3c0,0.9,0.6,1.4,1.8,1.4C181,46.8,181.9,46.3,182.7,45.5z"/>
		<path class="st0" d="M188.2,43.6v-5.7c0-4,2.6-6.3,6.9-6.3c3.8,0,6.6,2.1,6.6,6h-3.5c0-1.8-1.3-2.8-3.3-2.8
			c-2.2,0-3.2,1.1-3.2,2.9v5.8c0,1.9,1.1,3,3.2,3c1.3,0,2.7-0.7,3.3-1.7v-1.9h-3.1V40h6.6v9.4h-1.9l-1-1.4c-1.1,1.2-2.6,1.8-4.3,1.8
			C190.5,49.8,188.2,47.4,188.2,43.6z"/>
		<path class="st0" d="M204.3,36.4h1.9l0.9,1.3c0.6-0.7,1.7-1.6,3.4-1.6h0.7v3.1h-0.7c-1.4,0-2.2,0.3-3,1.2v9h-3.2V36.4z"/>
		<path class="st0" d="M211.5,45.8c0-2.7,1.7-4.2,5.3-4.2h2.7v-0.8c0-1.1-0.6-1.8-2.1-1.8c-1.5,0-2.1,0.6-2.1,1.5h-3.2
			c0-2.6,1.7-4.4,5.2-4.4c3.6,0,5.3,1.9,5.3,4.5v8.9h-1.9l-0.9-1.3c-0.9,0.9-2.1,1.6-4,1.6C213.5,49.7,211.5,48.4,211.5,45.8z
			 M219.4,45.5V44h-2.7c-1.7,0-2,0.8-2,1.3c0,0.9,0.6,1.4,1.8,1.4C217.8,46.8,218.7,46.3,219.4,45.5z"/>
		<path class="st0" d="M225.2,36.4h1.9l0.9,1.3c0.8-0.8,2-1.6,3.9-1.6c2.8,0,4.5,1.9,4.5,5v8.3h-3.2v-8.1c0-1.6-0.9-2.3-2-2.3
			c-1.3,0-2.3,0.9-2.7,1.4v9h-3.2V36.4z"/>
		<path class="st0" d="M239.3,44.4v-5.3h-1.9v-2.8h1.9v-2.7h3.2v2.7h3v2.8h-3v5.3c0,1.7,0.7,2.1,1.9,2.1h1.1v2.8h-1.4
			C240.2,49.4,239.3,46.9,239.3,44.4z"/>
		<path class="st0" d="M246.5,44.9h3.2c0.1,1.2,1.3,1.8,3,1.8c1.2,0,1.9-0.4,1.9-1.1c0-0.5-0.2-0.7-0.9-0.9l-3.6-0.9
			c-1.6-0.4-3.4-1.3-3.4-3.6c0-2.6,2-4.2,5.3-4.2s5.4,1.6,5.5,4.5h-3.2c-0.1-1-1-1.5-2.5-1.5c-1.4,0-1.9,0.5-1.9,1
			c0,0.5,0.4,0.7,1.1,0.9l3.7,0.9c1.7,0.4,3.1,1.4,3.1,3.5c0,2.7-2.2,4.3-5.4,4.3C249,49.7,246.6,47.9,246.5,44.9z"/>
		<path class="st0" d="M264.7,32h7.5c3.6,0,5.4,2,5.4,5.4c0,2.5-1.1,4.2-2.9,5l3.2,5.8v1.2h-3.4l-3.6-6.5h-2.7v6.5h-3.5V32z
			 M271.6,39.9c1.5,0,2.4-0.6,2.4-2.4c0-1.7-0.9-2.4-2.4-2.4h-3.4v4.8H271.6z"/>
		<path class="st0" d="M279.5,44.9v-4c0-3,2.3-4.8,5.7-4.8c3.2,0,5.4,1.7,5.4,4.8v3.1h-7.9v0.9c0,1.1,0.8,1.9,2.4,1.9
			c1.2,0,1.9-0.5,2.2-1.3h3.2c-0.2,2.7-2.2,4.3-5.4,4.3C281.7,49.7,279.5,48,279.5,44.9z M287.3,41.5v-0.6c0-1.1-0.8-1.8-2.3-1.8
			c-1.5,0-2.3,0.7-2.3,1.8v0.6H287.3z"/>
		<path class="st0" d="M292.1,44.9v-4c0-3,2.2-4.8,5.5-4.8c3.2,0,5.3,1.8,5.3,4.9v0.1h-3.2v-0.1c0-1.2-0.7-1.9-2.1-1.9
			c-1.6,0-2.3,0.7-2.3,1.8v4.1c0,1.1,0.7,1.8,2.3,1.8c1.4,0,2.1-0.8,2.1-1.9v-0.2h3.2v0.2c0,3.1-2.2,4.9-5.3,4.9
			C294.3,49.7,292.1,47.9,292.1,44.9z"/>
		<path class="st0" d="M304.9,31.9h3.2v2.7h-3.2V31.9z M304.9,36.4h3.2v13h-3.2V36.4z"/>
		<path class="st0" d="M310.8,36.4h1.9l0.9,1.3c0.9-0.8,2-1.6,3.9-1.6c2.5,0,4.6,1.5,4.6,4.8v4.1c0,3.3-2.1,4.8-4.6,4.8
			c-1.8,0-2.9-0.7-3.5-1.2v4.9h-3.2V36.4z M314,45.4c0.6,0.6,1.5,1.4,2.8,1.4c1,0,2.1-0.7,2.1-2.1v-3.6c0-1.4-1.1-2.1-2.1-2.1
			c-1.3,0-2.1,0.7-2.8,1.4V45.4z"/>
		<path class="st0" d="M324.3,31.9h3.2v2.7h-3.2V31.9z M324.3,36.4h3.2v13h-3.2V36.4z"/>
		<path class="st0" d="M329.6,44.9v-4c0-3,2.3-4.8,5.7-4.8c3.2,0,5.4,1.7,5.4,4.8v3.1h-7.9v0.9c0,1.1,0.8,1.9,2.4,1.9
			c1.2,0,1.9-0.5,2.2-1.3h3.2c-0.2,2.7-2.2,4.3-5.4,4.3C331.9,49.7,329.6,48,329.6,44.9z M337.5,41.5v-0.6c0-1.1-0.8-1.8-2.3-1.8
			c-1.5,0-2.3,0.7-2.3,1.8v0.6H337.5z"/>
		<path class="st0" d="M342.8,36.4h1.9l0.9,1.3c0.8-0.8,2-1.6,3.9-1.6c2.8,0,4.5,1.9,4.5,5v8.3h-3.2v-8.1c0-1.6-0.9-2.3-2-2.3
			c-1.3,0-2.3,0.9-2.7,1.4v9h-3.2V36.4z"/>
		<path class="st0" d="M356.9,44.4v-5.3H355v-2.8h1.9v-2.7h3.2v2.7h3v2.8h-3v5.3c0,1.7,0.7,2.1,1.9,2.1h1.1v2.8h-1.4
			C357.8,49.4,356.9,46.9,356.9,44.4z"/>
	</g>
</g>
</svg>
