<svg width="1118" height="721" viewBox="0 0 1118 721" fill="none" xmlns="http://www.w3.org/2000/svg">
<path d="M361.864 644.818H210.119C205.475 644.883 200.962 643.284 197.394 640.31C193.827 637.337 191.441 633.185 190.669 628.606C190.261 625.896 190.443 623.13 191.202 620.497C191.961 617.864 193.28 615.425 195.068 613.348C196.855 611.271 199.07 609.605 201.561 608.462C204.052 607.319 206.76 606.728 209.5 606.727H246.424C275.564 606.727 302.394 582.92 304.584 553.971C305.188 546.12 304.162 538.229 301.572 530.793C298.981 523.356 294.881 516.536 289.529 510.76C284.178 504.983 277.69 500.375 270.473 497.225C263.256 494.075 255.465 492.451 247.591 492.455H114.273V416.273H253.162C254.933 416.273 256.687 415.923 258.324 415.245C259.96 414.566 261.447 413.571 262.698 412.318C263.95 411.064 264.942 409.576 265.618 407.938C266.293 406.301 266.639 404.546 266.636 402.774V315.498C266.639 313.727 266.293 311.972 265.618 310.335C264.942 308.697 263.95 307.209 262.698 305.955C261.447 304.701 259.96 303.707 258.324 303.028C256.687 302.349 254.933 302 253.162 302H89.6803C86.1003 302 82.6669 303.422 80.1354 305.954C77.604 308.485 76.1818 311.918 76.1818 315.498V492.455H0V530.545H76.1818V568.636H114.273V530.545H246.996C251.636 530.48 256.147 532.075 259.714 535.044C263.28 538.013 265.668 542.159 266.446 546.734C266.858 549.448 266.678 552.218 265.919 554.856C265.16 557.494 263.84 559.936 262.05 562.017C260.259 564.097 258.04 565.765 255.544 566.908C253.049 568.05 250.336 568.64 247.591 568.636H210.69C181.551 568.636 154.721 592.3 152.53 621.368C151.923 629.22 152.946 637.112 155.534 644.549C158.121 651.986 162.219 658.808 167.568 664.587C172.918 670.366 179.404 674.976 186.62 678.129C193.836 681.282 201.625 682.91 209.5 682.909H361.269C365.909 682.843 370.419 684.439 373.986 687.408C377.553 690.377 379.941 694.523 380.719 699.098C381.13 701.811 380.951 704.582 380.192 707.22C379.433 709.857 378.113 712.3 376.322 714.38C374.532 716.46 372.313 718.129 369.817 719.271C367.321 720.414 364.608 721.004 361.864 721H415.5C417.758 714.901 418.942 708.457 419 701.955C419 686.801 412.98 672.268 402.265 661.553C391.55 650.838 377.017 644.818 361.864 644.818ZM114.273 346.828C114.279 345.043 114.991 343.333 116.253 342.071C117.515 340.809 119.225 340.097 121.01 340.091H221.784C223.571 340.091 225.285 340.801 226.548 342.064C227.812 343.328 228.522 345.041 228.522 346.828V371.421C228.525 372.305 228.354 373.182 228.018 374.001C227.682 374.819 227.189 375.564 226.565 376.192C225.942 376.82 225.201 377.318 224.385 377.66C223.568 378.001 222.693 378.179 221.808 378.182H121.01C119.217 378.182 117.497 377.469 116.229 376.202C114.961 374.934 114.249 373.214 114.249 371.421L114.273 346.828Z" fill="black"/>
<path d="M973.134 140.173C969.919 190.605 926.862 229.268 876.35 229.268H535.129C527.252 229.268 519.46 227.64 512.241 224.485C505.023 221.33 498.534 216.716 493.183 210.934C487.832 205.152 483.733 198.325 481.145 190.883C478.556 183.441 477.533 175.544 478.14 167.688C480.331 138.601 507.171 114.922 536.32 114.922H573.233C575.979 114.926 578.693 114.336 581.189 113.192C583.686 112.049 585.906 110.379 587.697 108.298C589.488 106.217 590.809 103.772 591.568 101.133C592.327 98.4935 592.507 95.7211 592.095 93.0057C591.317 88.4278 588.928 84.279 585.36 81.3084C581.792 78.3377 577.28 76.7411 572.638 76.8068H458.922C443.763 76.8068 429.225 70.7832 418.506 60.0612C407.787 49.3392 401.766 34.7971 401.766 19.6339C401.829 13.1252 403.022 6.67694 405.29 0.576263H458.922C456.18 0.576606 453.471 1.16869 450.98 2.3121C448.488 3.45551 446.272 5.12332 444.484 7.20162C442.696 9.27992 441.377 11.7197 440.618 14.3546C439.858 16.9894 439.676 19.7571 440.084 22.4687C440.852 27.0532 443.237 31.2104 446.807 34.1867C450.377 37.163 454.894 38.7612 459.541 38.6915H573.233C581.109 38.6913 588.899 40.319 596.115 43.4726C603.332 46.6261 609.819 51.2374 615.17 57.0171C620.521 62.7969 624.62 69.6204 627.211 77.0597C629.801 84.4989 630.826 92.3933 630.223 100.248C628.008 129.334 601.216 153.037 572.066 153.037H535.129C532.388 153.038 529.679 153.63 527.188 154.773C524.696 155.917 522.48 157.584 520.692 159.663C518.904 161.741 517.585 164.181 516.825 166.816C516.066 169.45 515.884 172.218 516.292 174.93C517.06 179.514 519.445 183.671 523.015 186.648C526.584 189.624 531.102 191.222 535.749 191.153H878.065C885.942 191.153 893.735 189.525 900.953 186.37C908.171 183.215 914.66 178.601 920.011 172.819C925.363 167.036 929.461 160.21 932.05 152.768C934.639 145.326 935.661 137.429 935.054 129.573C932.887 100.486 906.047 76.8068 876.898 76.8068H839.961C824.802 76.8068 810.264 70.7832 799.546 60.0612C788.827 49.3392 782.805 34.7971 782.805 19.6339C782.869 13.1252 784.061 6.67694 786.33 0.576263H839.961C834.908 0.576263 830.062 2.5841 826.489 6.1581C822.916 9.7321 820.909 14.5795 820.909 19.6339C820.909 24.6883 822.916 29.5357 826.489 33.1097C830.062 36.6837 834.908 38.6915 839.961 38.6915H878.065C891.097 38.69 903.991 41.3634 915.949 46.5462C927.907 51.729 938.675 59.3111 947.586 68.8234C956.497 78.3356 963.362 89.5757 967.757 101.848C972.151 114.121 973.981 127.165 973.134 140.173Z" fill="#7F7F7F"/>
<path d="M864.777 491.909V415.545H1003.66C1007.22 415.546 1010.64 414.136 1013.17 411.625C1015.7 409.113 1017.13 405.702 1017.16 402.134V314.531C1017.16 310.942 1015.74 307.501 1013.21 304.963C1010.68 302.426 1007.24 301 1003.66 301H840.18C836.6 301 833.166 302.426 830.634 304.963C828.102 307.501 826.68 310.942 826.68 314.531V491.909H732.627C703.483 491.909 676.648 515.63 674.458 544.767C673.851 552.637 674.873 560.548 677.462 568.003C680.05 575.458 684.148 582.296 689.498 588.089C694.848 593.881 701.336 598.503 708.553 601.663C715.77 604.824 723.561 606.455 731.437 606.455H768.939C773.58 606.389 778.091 607.988 781.658 610.964C785.226 613.94 787.614 618.096 788.392 622.682C788.804 625.402 788.624 628.179 787.865 630.823C787.106 633.467 785.786 635.916 783.995 638.001C782.204 640.086 779.985 641.758 777.489 642.904C774.993 644.049 772.279 644.64 769.534 644.636H617.146C601.99 644.636 587.454 650.67 576.738 661.411C566.021 672.152 560 686.719 560 701.909C560.066 708.429 561.258 714.888 563.524 721H617.146C614.402 721 611.692 720.407 609.199 719.26C606.705 718.113 604.489 716.44 602.701 714.355C600.912 712.271 599.594 709.823 598.837 707.181C598.079 704.539 597.9 701.764 598.311 699.045C599.085 694.457 601.472 690.298 605.04 687.322C608.608 684.345 613.122 682.747 617.765 682.818H768.367C797.511 682.818 824.346 658.955 826.513 629.936C827.116 622.068 826.091 614.16 823.501 606.708C820.912 599.256 816.813 592.42 811.463 586.63C806.113 580.84 799.627 576.221 792.412 573.062C785.197 569.903 777.408 568.272 769.534 568.273H732.08C727.434 568.342 722.917 566.742 719.348 563.76C715.779 560.779 713.394 556.614 712.626 552.022C712.219 549.305 712.401 546.533 713.16 543.893C713.919 541.254 715.238 538.81 717.026 536.728C718.814 534.646 721.029 532.975 723.52 531.83C726.011 530.684 728.72 530.091 731.461 530.091H826.703V568.273H864.8V530.091L1118 530.091V491.909L864.777 491.909ZM864.777 345.935C864.783 344.142 865.498 342.424 866.766 341.158C868.033 339.893 869.749 339.182 871.539 339.182H972.329C973.214 339.182 974.09 339.356 974.908 339.696C975.726 340.035 976.468 340.533 977.094 341.16C977.72 341.787 978.216 342.531 978.555 343.351C978.894 344.17 979.068 345.048 979.068 345.935V370.586C979.068 372.38 978.359 374.1 977.096 375.37C975.833 376.64 974.119 377.357 972.329 377.364H871.539C869.745 377.364 868.025 376.65 866.757 375.379C865.489 374.108 864.777 372.384 864.777 370.586V345.935Z" fill="#7F7F7F"/>
<path d="M534.296 244.931C544.568 239 557.224 239 567.497 244.931L646.072 290.296C656.345 296.227 662.673 307.188 662.673 319.049V409.78C662.673 421.642 656.345 432.603 646.072 438.533L567.497 483.899C557.224 489.83 544.568 489.83 534.296 483.899L455.72 438.533C445.448 432.602 439.12 421.642 439.12 409.78V319.049C439.12 307.188 445.448 296.227 455.72 290.296L534.296 244.931Z" fill="#2B2B2B"/>
<path d="M538.68 381.957H513.901L509.688 396.329H502.254L519.765 338.51H532.816L550.327 396.329H542.893L538.68 381.957ZM525.795 341.483L515.8 375.514H536.78L526.786 341.483H525.795ZM557.703 338.51H594.377V344.952H579.509V389.886H594.377V396.329H557.703V389.886H572.571V344.952H557.703V338.51Z" fill="#F6F0EB"/>
<path d="M646.985 186.183C648.783 179.517 652.99 173.725 658.791 169.93C664.593 166.135 671.576 164.607 678.385 165.643C685.194 166.679 691.346 170.206 695.646 175.538C699.947 180.87 702.091 187.628 701.662 194.502C701.233 201.377 698.261 207.877 693.324 212.744C688.386 217.61 681.835 220.496 674.939 220.841C668.044 221.187 661.295 218.967 656.002 214.613L639.398 228.006L640.12 252.989C640.146 253.852 639.971 254.712 639.605 255.5C639.239 256.287 638.695 256.98 638.015 257.523L604.939 284.201L604.949 284.108L598.01 275.504L628.853 250.627L628.173 225.695C628.15 224.832 628.329 223.974 628.694 223.187C629.059 222.401 629.601 221.707 630.278 221.161L649.063 206.01C645.928 199.915 645.188 192.849 646.985 186.183ZM666.184 178.384C663.248 179.934 660.829 182.311 659.232 185.216C657.635 188.121 656.932 191.423 657.212 194.704C657.492 197.985 658.742 201.098 660.805 203.65C663.573 207.068 667.601 209.235 672.004 209.675C676.407 210.115 680.826 208.793 684.291 205.998C686.873 203.911 688.786 201.114 689.788 197.961C690.789 194.808 690.834 191.44 689.917 188.283C689 185.127 687.162 182.325 684.636 180.229C682.109 178.134 679.007 176.84 675.723 176.512C672.438 176.183 669.119 176.835 666.184 178.384Z" fill="#2B2B2B"/>
<path d="M646.985 539.342C648.783 546.008 652.99 551.801 658.791 555.595C664.593 559.39 671.575 560.917 678.384 559.881C685.194 558.845 691.346 555.32 695.646 549.987C699.947 544.655 702.09 537.897 701.661 531.022C701.232 524.148 698.261 517.648 693.324 512.781C688.386 507.915 681.835 505.03 674.939 504.684C668.043 504.339 661.295 506.558 656.002 510.912L639.397 497.519L640.12 472.535C640.147 471.672 639.97 470.812 639.604 470.025C639.239 469.238 638.694 468.545 638.015 468.001L604.939 441.324L604.949 441.417L598.01 450.02L628.854 474.898L628.172 499.83C628.15 500.692 628.328 501.551 628.693 502.337C629.058 503.124 629.601 503.819 630.278 504.364L649.063 519.516C645.928 525.61 645.188 532.676 646.985 539.342ZM666.184 547.141C663.248 545.592 660.829 543.214 659.232 540.309C657.635 537.404 656.932 534.102 657.212 530.821C657.492 527.54 658.742 524.426 660.804 521.875C663.572 518.457 667.6 516.29 672.003 515.85C676.406 515.41 680.825 516.732 684.29 519.527C686.873 521.614 688.786 524.411 689.788 527.564C690.789 530.717 690.834 534.086 689.917 537.242C689 540.398 687.162 543.201 684.636 545.296C682.109 547.391 679.007 548.685 675.723 549.014C672.439 549.342 669.119 548.69 666.184 547.141Z" fill="#2B2B2B"/>
</svg>
