<svg id="a" xmlns="http://www.w3.org/2000/svg" viewBox="0 0 1489 401"><defs><style>.cls-1{fill:#f6f0eb;}.cls-2{fill:#232e41;}</style></defs><polygon class="cls-1" points="692.1 53.6 692.1 88.7 616.8 88.7 616.8 236 575.6 236 575.6 88.7 500 88.7 500 53.6 692.1 53.6"/><path class="cls-1" d="M877.1,156.3c-1.2-.3-2.5-.6-3.8-.8a63.91,63.91,0,0,0,16.6-8.1,41.15,41.15,0,0,0,13-15.1,49.65,49.65,0,0,0,4.6-22.5c0-12.9-3-23.6-9-32a51.43,51.43,0,0,0-24.9-18.4,108.88,108.88,0,0,0-36.7-5.8h-123V236h41.2V170.3h66.7a126.19,126.19,0,0,1,26,2.1c5.5,1.3,9.3,3.6,11.4,6.8a27.44,27.44,0,0,1,3.2,14.6V236h41.2V191.4c0-10.4-2.3-18.4-6.7-23.8a34.31,34.31,0,0,0-19.8-11.3ZM864.7,122a24.09,24.09,0,0,1-5.7,8.4c-4.9,4.6-12.3,6.8-21.9,6.8H755.3V89.6h81.8c9.7,0,17.1,2,22.1,5.8s7.2,9.3,7.2,16.6A24.52,24.52,0,0,1,864.7,122Z"/><polygon class="cls-1" points="1300.2 200.9 1300.2 236 1140.9 236 1140.9 53.6 1182.1 53.6 1182.1 200.9 1300.2 200.9"/><polygon class="cls-1" points="1489 200.9 1489 236 1329.7 236 1329.7 53.6 1370.8 53.6 1370.8 200.9 1489 200.9"/><path class="cls-1" d="M1121.1,53.6l-2.3,3.6L1041,178.1V236H999.8V178.1L922.2,57.2l-2.3-3.6h47.7l.7,1,41.4,63.2a85,85,0,0,1,8.5,15.7,40.15,40.15,0,0,1,2.3,8.4,40.15,40.15,0,0,1,2.3-8.4,85,85,0,0,1,8.5-15.7l41.5-63.2.7-1Z"/><polygon class="cls-1" points="632.3 338.5 632.3 347.4 574.5 347.4 574.5 281.2 631.6 281.2 631.6 290.1 587.6 290.1 587.6 309.8 628.7 309.8 628.7 318.7 587.6 318.7 587.6 338.5 632.3 338.5"/><polygon class="cls-1" points="797.5 281.4 797.5 347.6 785.3 347.6 736.1 297.7 736.1 347.6 723 347.6 723 281.4 735.1 281.4 784.6 331.4 784.6 281.4 797.5 281.4"/><path class="cls-1" d="M968,313.7v7.9a22.6,22.6,0,0,1-5,14.5,32.5,32.5,0,0,1-13.6,9.4,59.93,59.93,0,0,1-41.4-.8,34.63,34.63,0,0,1-14.7-11.8,31.47,31.47,0,0,1-5.3-18.2,32.83,32.83,0,0,1,3-14.2,30.09,30.09,0,0,1,8.6-10.8,40.14,40.14,0,0,1,13-6.8,59.54,59.54,0,0,1,30.1-.7,45,45,0,0,1,11.5,4.4,29.24,29.24,0,0,1,8.5,6.9,23.46,23.46,0,0,1,4.8,8.9l.3,1.3H954.4l-.3-.6a19.94,19.94,0,0,0-3.7-5.4,22.92,22.92,0,0,0-5.4-4.2,26,26,0,0,0-7.1-2.6,41.28,41.28,0,0,0-8.9-.9,35.61,35.61,0,0,0-14.4,2.9,24,24,0,0,0-10.2,8.4,23.91,23.91,0,0,0,10.3,35.6,40.21,40.21,0,0,0,28.4.6,21.66,21.66,0,0,0,9-6.4,15,15,0,0,0,3.1-8.2H931.1V314H968Z"/><rect class="cls-1" x="1059" y="281.4" width="13.2" height="66.2"/><polygon class="cls-1" points="1238.5 281.4 1238.5 347.6 1226.2 347.6 1225.9 347.3 1176.2 297.7 1176.2 347.6 1163 347.6 1163 281.4 1175.3 281.4 1225.5 331.4 1225.5 281.4 1238.5 281.4"/><polygon class="cls-1" points="1387.2 338.1 1387.2 347.8 1328.6 347.8 1328.6 280.8 1386.5 280.8 1386.5 290.5 1342.5 290.5 1342.5 309.4 1383.6 309.4 1383.6 319.1 1342.5 319.1 1342.5 338.1 1387.2 338.1"/><path class="cls-2" d="M350.8.7H49.2A49.16,49.16,0,0,0,0,49.9V351.6a49.23,49.23,0,0,0,49.2,49.2H350.9a49.23,49.23,0,0,0,49.2-49.2V49.9A49.31,49.31,0,0,0,350.8.7Z"/><path class="cls-1" d="M333.3,280.7a13.43,13.43,0,0,1-3.8,9.3,13.2,13.2,0,0,1-9.2,4H0V267.3H120.3a13.2,13.2,0,0,0,9.2-4,13.28,13.28,0,0,0,0-18.6,13.2,13.2,0,0,0-9.2-4h-74a13.2,13.2,0,0,1-9.2-4,13.43,13.43,0,0,1-3.8-9.3,13,13,0,0,1,3.8-9.3,13.2,13.2,0,0,1,9.2-4h72.2a4.1,4.1,0,0,0,1.1.1h.7a4.87,4.87,0,0,0,1.2-.1,12.85,12.85,0,0,0,8.4-4.4,13.18,13.18,0,0,0,3.4-8.9v-.7a12.93,12.93,0,0,0-4-8.9,13.16,13.16,0,0,0-9-3.8H79.7a13.63,13.63,0,0,1-8.2-3.1,13.3,13.3,0,0,1-4.5-7.5,13.78,13.78,0,0,1,1.1-8.7,13.32,13.32,0,0,1,6.3-6.1,12.42,12.42,0,0,1,5.3-1.2h40.7a13.2,13.2,0,0,0,9.2-4,13.28,13.28,0,0,0,0-18.6,13.2,13.2,0,0,0-9.2-4H0V107.5H134.2a33.3,33.3,0,0,1,32.4,33.4V267.6h53.8a13.2,13.2,0,0,0,9.2-4,13.43,13.43,0,0,0,3.8-9.3V147.4a13.43,13.43,0,0,0-3.8-9.3,13.2,13.2,0,0,0-9.2-4H213a13.2,13.2,0,0,1-9.2-4,13.28,13.28,0,0,1,0-18.6,13.2,13.2,0,0,1,9.2-4h21.2a33.3,33.3,0,0,1,32.4,33.4V267.6h53.7a13.2,13.2,0,0,1,9.2,4,12.22,12.22,0,0,1,3.8,9.1Z"/></svg>